<svg version="1.2" baseProfile="tiny-ps" xmlns="http://www.w3.org/2000/svg" viewBox="0 0 900 216" width="175" height="42">
	<title>matplotlib-svg</title>
	<style>
		tspan { white-space:pre }
		.shp0 { fill: #11557c } 
		.shp1 { fill: #ffffff;stroke: #ffffff;stroke-linejoin:round;stroke-width: 4.551 } 
		.shp2 { fill: #ffffff } 
		.shp3 { fill: none;stroke: #858585;stroke-linecap:round;stroke-linejoin:round;stroke-width: 0.399;stroke-dasharray: 0,1 } 
		.shp4 { fill: none;stroke: #818181;stroke-linecap:square;stroke-linejoin:round;stroke-width: 0.399 } 
		.shp5 { fill: #004cff;stroke: #000000;stroke-linejoin:round;stroke-width: 0.917 } 
		.shp6 { fill: #ceff29;stroke: #000000;stroke-linejoin:round;stroke-width: 0.917 } 
		.shp7 { fill: #ff6800;stroke: #000000;stroke-linejoin:round;stroke-width: 0.917 } 
		.shp8 { fill: #ffc400;stroke: #000000;stroke-linejoin:round;stroke-width: 0.917 } 
		.shp9 { fill: #29ffce;stroke: #000000;stroke-linejoin:round;stroke-width: 0.917 } 
		.shp10 { fill: #7dff7a;stroke: #000000;stroke-linejoin:round;stroke-width: 0.917 } 
		.shp11 { fill: none;stroke: #11557c;stroke-width: 1.991 } 
		.shp12 { fill: none;stroke: #000000;stroke-linejoin:round;stroke-width: 0.917 } 
	</style>
	<g id="Layer">
		<path id="Layer" fill-rule="evenodd" class="shp0" d="M168.84 157.53C168.79 158.16 168.56 158.72 168.14 159.21C167.74 159.65 167.09 160.02 166.18 160.33C165.28 160.64 164.08 160.86 162.58 160.99C161.07 161.18 159.16 161.27 156.85 161.27C154.48 161.27 152.55 161.18 151.07 160.99C149.58 160.86 148.38 160.64 147.47 160.33C146.62 160.02 146.02 159.64 145.67 159.21C145.4 158.71 145.29 158.15 145.33 157.53L149.01 108.03C149.21 105.23 149.12 102.67 148.74 100.36C148.41 98.05 147.74 96.09 146.74 94.46C145.81 92.77 144.53 91.49 142.91 90.62C141.36 89.69 139.42 89.22 137.11 89.22C134.31 89.22 131.39 90.31 128.35 92.5C125.32 94.69 121.96 97.87 118.28 102.05L114.15 157.55C114.1 158.18 113.87 158.74 113.45 159.23C113.05 159.67 112.37 160.04 111.4 160.35C110.5 160.66 109.3 160.88 107.8 161.01C106.29 161.2 104.41 161.29 102.16 161.29C99.85 161.29 97.95 161.2 96.46 161.01C94.97 160.88 93.77 160.66 92.86 160.35C92.01 160.04 91.41 159.66 91.06 159.23C90.73 158.73 90.58 158.17 90.62 157.55L94.3 108.05C94.5 105.25 94.41 102.69 94.03 100.38C93.7 98.07 93.06 96.11 92.13 94.48C91.2 92.79 89.92 91.51 88.3 90.64C86.69 89.71 84.75 89.24 82.5 89.24C79.63 89.24 76.68 90.33 73.65 92.52C70.62 94.71 67.29 97.89 63.67 102.07L59.54 157.57C59.49 158.2 59.26 158.76 58.84 159.25C58.44 159.69 57.76 160.06 56.79 160.37C55.89 160.68 54.69 160.9 53.19 161.03C51.68 161.22 49.77 161.31 47.46 161.31C45.15 161.31 43.25 161.22 41.76 161.03C40.27 160.9 39.07 160.68 38.16 160.37C37.31 160.06 36.71 159.68 36.36 159.25C36.03 158.75 35.88 158.19 35.92 157.57L42.12 74.09C42.17 73.46 42.37 72.93 42.72 72.49C43.07 71.99 43.66 71.58 44.5 71.27C45.33 70.96 46.38 70.74 47.64 70.61C48.97 70.42 50.61 70.33 52.54 70.33C54.54 70.33 56.19 70.42 57.48 70.61C58.78 70.74 59.76 70.96 60.43 71.27C61.16 71.58 61.66 71.99 61.93 72.49C62.21 72.93 62.33 73.46 62.28 74.09L61.56 83.73C66.55 78.73 71.41 74.99 76.16 72.5C80.96 70.01 85.86 68.76 90.86 68.76C94.29 68.76 97.35 69.13 100.04 69.88C102.73 70.57 105.09 71.6 107.11 72.98C109.2 74.29 110.95 75.88 112.37 77.75C113.79 79.62 114.94 81.71 115.83 84.02C118.52 81.34 121.13 79.03 123.65 77.09C126.23 75.16 128.72 73.6 131.11 72.41C133.58 71.16 135.98 70.26 138.33 69.71C140.75 69.08 143.18 68.77 145.61 68.77C151.16 68.77 155.77 69.7 159.44 71.57C163.11 73.44 165.97 75.99 168.04 79.24C170.17 82.42 171.58 86.16 172.26 90.47C172.94 94.78 173.1 99.33 172.74 104.13L168.76 157.57L168.84 157.53ZM263.24 157.8C263.17 158.67 262.81 159.35 262.14 159.86C261.47 160.36 260.45 160.7 259.07 160.89C257.74 161.14 255.76 161.26 253.15 161.26C250.35 161.26 248.3 161.14 247 160.89C245.77 160.7 244.89 160.36 244.36 159.86C243.89 159.36 243.69 158.67 243.76 157.8L244.26 151.16C240.55 154.84 236.41 157.71 231.83 159.76C227.31 161.83 222.37 162.86 217 162.86C212.57 162.86 208.53 162.27 204.87 161.08C201.27 159.96 198.18 158.28 195.61 156.03C193.1 153.72 191.22 150.88 189.97 147.51C188.72 144.14 188.27 140.21 188.6 135.71C188.96 130.84 190.21 126.63 192.35 123.08C194.55 119.46 197.61 116.49 201.53 114.18C205.51 111.81 210.35 110.06 216.05 108.94C221.75 107.82 228.31 107.26 235.73 107.26L243.87 107.26L244.25 102.21C244.45 99.59 244.34 97.31 243.92 95.38C243.57 93.38 242.82 91.73 241.67 90.42C240.58 89.11 239.03 88.14 237.02 87.52C235.07 86.89 232.59 86.58 229.6 86.58C225.67 86.58 222.11 87.01 218.93 87.88C215.81 88.75 213.02 89.71 210.57 90.78C208.12 91.85 206.06 92.81 204.37 93.68C202.74 94.55 201.43 94.98 200.44 94.98C199.75 94.98 199.15 94.76 198.62 94.32C198.15 93.88 197.76 93.26 197.45 92.45C197.2 91.64 197.02 90.64 196.92 89.45C196.82 88.26 196.82 86.95 196.93 85.52C197.08 83.59 197.34 82.05 197.73 80.92C198.13 79.8 198.8 78.8 199.73 77.92C200.66 76.99 202.26 75.99 204.53 74.92C206.8 73.8 209.43 72.77 212.43 71.82C215.43 70.89 218.66 70.14 222.13 69.57C225.66 68.94 229.27 68.63 232.96 68.63C239.51 68.63 245.05 69.29 249.56 70.6C254.15 71.85 257.84 73.81 260.63 76.5C263.43 79.12 265.36 82.52 266.43 86.7C267.5 90.88 267.81 95.84 267.38 101.58L263.2 157.73L263.24 157.8ZM233.8 122.05C230 122.05 226.73 122.33 224 122.89C221.27 123.45 219.02 124.29 217.26 125.42C215.49 126.54 214.14 127.91 213.21 129.54C212.34 131.1 211.83 132.91 211.68 134.97C211.41 138.46 212.3 141.21 214.34 143.21C216.44 145.21 219.45 146.21 223.38 146.21C226.69 146.21 229.78 145.37 232.65 143.68C235.58 141.99 238.61 139.53 241.72 136.28L242.78 122.05L233.8 122.05Z" />
		<path id="B" class="shp0" d="M335 149.3C334.8 152.05 334.46 154.17 333.97 155.66C333.55 157.09 333.04 158.13 332.43 158.76C331.83 159.32 330.95 159.85 329.78 160.36C328.69 160.8 327.38 161.17 325.86 161.48C324.39 161.85 322.78 162.13 321.02 162.32C319.32 162.51 317.6 162.6 315.85 162.6C311.17 162.6 307.16 162.01 303.82 160.82C300.49 159.63 297.79 157.82 295.72 155.39C293.65 152.9 292.23 149.78 291.46 146.03C290.68 142.28 290.48 137.85 290.86 132.73L294.04 89.96L284.04 89.96C282.85 89.96 282 89.24 281.49 87.81C280.98 86.31 280.84 83.84 281.09 80.41C281.22 78.61 281.4 77.08 281.62 75.81C281.9 74.56 282.22 73.6 282.58 72.91C282.95 72.16 283.36 71.63 283.82 71.31C284.34 71 284.91 70.84 285.54 70.84L295.46 70.84L296.86 52.22C296.91 51.59 297.11 51.03 297.46 50.54C297.87 50.04 298.53 49.63 299.42 49.32C300.39 48.95 301.62 48.7 303.12 48.57C304.69 48.38 306.6 48.29 308.85 48.29C311.16 48.29 313.06 48.38 314.55 48.57C316.1 48.7 317.3 48.95 318.15 49.32C319 49.63 319.6 50.04 319.93 50.54C320.26 51.04 320.41 51.6 320.37 52.22L318.97 70.84L337.13 70.84C337.76 70.84 338.28 71 338.69 71.31C339.16 71.62 339.52 72.16 339.79 72.91C340.06 73.6 340.2 74.56 340.23 75.81C340.32 77.06 340.3 78.59 340.17 80.41C339.92 83.84 339.42 86.31 338.67 87.81C337.94 89.24 336.98 89.96 335.8 89.96L317.55 89.96L314.63 129.16C314.3 133.71 314.76 137.15 316.03 139.46C317.3 141.71 319.77 142.83 323.45 142.83C324.7 142.83 325.83 142.74 326.85 142.55C327.87 142.3 328.76 142.05 329.53 141.8C330.36 141.49 331.04 141.24 331.55 141.05C332.13 140.8 332.64 140.68 333.08 140.68C333.45 140.68 333.79 140.8 334.08 141.05C334.44 141.24 334.69 141.67 334.82 142.35C334.95 142.98 335.04 143.85 335.09 144.97C335.2 146.09 335.18 147.52 335.05 149.27L335 149.3Z" />
		<path id="Layer" fill-rule="evenodd" class="shp0" d="M438.85 114.57C438.3 122 436.99 128.7 434.92 134.69C432.92 140.62 430.24 145.68 426.87 149.85C423.5 154.03 419.46 157.24 414.74 159.49C410.02 161.74 404.73 162.86 398.86 162.86C396.43 162.86 394.2 162.61 392.18 162.11C390.21 161.67 388.3 160.98 386.44 160.05C384.64 159.05 382.86 157.83 381.1 156.4C379.33 154.97 377.52 153.28 375.67 151.35L372.75 190.65C372.7 191.28 372.47 191.84 372.05 192.33C371.64 192.83 370.95 193.24 369.99 193.55C369.09 193.92 367.88 194.2 366.37 194.39C364.86 194.58 362.95 194.67 360.64 194.67C358.33 194.67 356.43 194.58 354.94 194.39C353.45 194.2 352.25 193.92 351.34 193.55C350.49 193.24 349.89 192.83 349.56 192.33C349.23 191.83 349.08 191.27 349.12 190.65L357.8 74.05C357.85 73.42 358.05 72.89 358.4 72.45C358.75 71.95 359.31 71.54 360.08 71.23C360.91 70.92 361.96 70.7 363.22 70.57C364.55 70.38 366.19 70.29 368.12 70.29C369.99 70.29 371.54 70.38 372.78 70.57C374.08 70.7 375.09 70.92 375.82 71.23C376.61 71.54 377.14 71.95 377.42 72.45C377.7 72.89 377.82 73.42 377.77 74.05L377.04 83.88C379.66 81.39 382.19 79.2 384.64 77.33C387.15 75.4 389.67 73.81 392.2 72.56C394.73 71.25 397.3 70.28 399.9 69.66C402.57 69.03 405.37 68.72 408.3 68.72C414.41 68.72 419.53 69.94 423.66 72.37C427.79 74.74 431.04 78.02 433.41 82.2C435.84 86.38 437.48 91.25 438.31 96.8C439.14 102.35 439.33 108.28 438.86 114.58L438.85 114.57ZM414.12 106.05C413.87 102.74 413.18 99.81 412.06 97.25C410.99 94.69 409.46 92.66 407.46 91.17C405.53 89.61 402.99 88.83 399.86 88.83C398.3 88.83 396.72 89.08 395.12 89.58C393.59 90.02 391.97 90.77 390.27 91.83C388.63 92.9 386.91 94.27 385.1 95.95C383.3 97.64 381.37 99.73 379.3 102.22L377.25 129.72C380.25 133.9 383.16 137.14 385.98 139.45C388.81 141.7 391.84 142.82 395.08 142.82C398.15 142.82 400.79 142.04 403.02 140.48C405.32 138.92 407.25 136.89 408.82 134.4C410.38 131.84 411.59 128.97 412.46 125.8C413.38 122.62 413.96 119.44 414.2 116.25C414.47 112.7 414.44 109.3 414.12 106.05Z" />
		<path id="C" class="shp0" d="M478.15 157.53C478.1 158.16 477.87 158.72 477.45 159.21C477.05 159.65 476.37 160.02 475.4 160.33C474.5 160.64 473.3 160.86 471.8 160.99C470.29 161.18 468.38 161.27 466.07 161.27C463.76 161.27 461.86 161.18 460.37 160.99C458.88 160.86 457.68 160.64 456.77 160.33C455.92 160.02 455.32 159.64 454.97 159.21C454.64 158.71 454.49 158.15 454.53 157.53L463.69 34.46C463.74 33.83 463.97 33.27 464.39 32.78C464.8 32.28 465.46 31.87 466.35 31.56C467.32 31.19 468.55 30.91 470.05 30.72C471.56 30.53 473.47 30.44 475.78 30.44C478.09 30.44 479.99 30.53 481.48 30.72C482.97 30.91 484.13 31.19 484.98 31.56C485.89 31.87 486.52 32.28 486.85 32.78C487.18 33.28 487.33 33.84 487.29 34.46L478.13 157.53L478.15 157.53Z" />
		<path id="Layer" fill-rule="evenodd" class="shp0" d="M589.3 114.95C588.77 122.06 587.35 128.55 585.04 134.42C582.73 140.29 579.52 145.34 575.4 149.58C571.28 153.82 566.26 157.1 560.35 159.41C554.44 161.72 547.64 162.87 539.97 162.87C532.54 162.87 526.16 161.84 520.83 159.77C515.5 157.7 511.16 154.71 507.83 150.79C504.5 146.86 502.17 142.02 500.86 136.29C499.54 130.56 499.15 124.01 499.7 116.64C500.23 109.53 501.65 103.04 503.96 97.17C506.33 91.24 509.58 86.18 513.7 82.01C517.82 77.77 522.81 74.49 528.66 72.18C534.57 69.87 541.37 68.72 549.04 68.72C556.53 68.72 562.94 69.75 568.28 71.82C573.61 73.82 577.91 76.79 581.18 80.72C584.51 84.65 586.84 89.49 588.15 95.22C589.47 100.95 589.85 107.54 589.3 114.97L589.3 114.95ZM565 115.89C565.31 111.77 565.24 108 564.8 104.57C564.43 101.08 563.57 98.05 562.2 95.49C560.83 92.93 558.89 90.93 556.38 89.49C553.93 88.06 550.74 87.34 546.81 87.34C543.32 87.34 540.21 88 537.49 89.31C534.78 90.56 532.48 92.43 530.61 94.93C528.74 97.36 527.24 100.33 526.11 103.83C525.04 107.26 524.34 111.2 524.01 115.63C523.7 119.75 523.76 123.56 524.19 127.05C524.62 130.48 525.49 133.48 526.79 136.03C528.16 138.59 530.1 140.59 532.61 142.03C535.13 143.4 538.32 144.09 542.19 144.09C545.74 144.09 548.88 143.47 551.59 142.22C554.31 140.91 556.6 139.03 558.47 136.6C560.34 134.17 561.8 131.23 562.87 127.8C563.94 124.31 564.64 120.34 564.97 115.9L565 115.89Z" />
		<path id="B" class="shp0" d="M654.7 149.3C654.5 152.05 654.16 154.17 653.67 155.66C653.25 157.09 652.74 158.13 652.13 158.76C651.53 159.32 650.65 159.85 649.48 160.36C648.39 160.8 647.08 161.17 645.56 161.48C644.09 161.85 642.48 162.13 640.72 162.32C639.02 162.51 637.3 162.6 635.55 162.6C630.87 162.6 626.86 162.01 623.52 160.82C620.19 159.63 617.49 157.82 615.42 155.39C613.35 152.9 611.93 149.78 611.16 146.03C610.38 142.28 610.18 137.85 610.56 132.73L613.74 89.96L603.74 89.96C602.55 89.96 601.7 89.24 601.19 87.81C600.68 86.31 600.54 83.84 600.79 80.41C600.92 78.61 601.1 77.08 601.32 75.81C601.6 74.56 601.92 73.6 602.28 72.91C602.65 72.16 603.06 71.63 603.52 71.31C604.04 71 604.61 70.84 605.24 70.84L615.16 70.84L616.56 52.22C616.61 51.59 616.81 51.03 617.16 50.54C617.57 50.04 618.23 49.63 619.12 49.32C620.09 48.95 621.32 48.7 622.82 48.57C624.39 48.38 626.3 48.29 628.55 48.29C630.86 48.29 632.76 48.38 634.25 48.57C635.8 48.7 637 48.95 637.85 49.32C638.7 49.63 639.3 50.04 639.63 50.54C639.96 51.04 640.11 51.6 640.07 52.22L638.67 70.84L656.83 70.84C657.46 70.84 657.98 71 658.39 71.31C658.86 71.62 659.22 72.16 659.49 72.91C659.76 73.6 659.9 74.56 659.93 75.81C660.02 77.06 660 78.59 659.87 80.41C659.62 83.84 659.12 86.31 658.37 87.81C657.64 89.24 656.68 89.96 655.5 89.96L637.25 89.96L634.33 129.16C634 133.71 634.46 137.15 635.73 139.46C637 141.71 639.47 142.83 643.15 142.83C644.4 142.83 645.53 142.74 646.55 142.55C647.57 142.3 648.46 142.05 649.23 141.8C650.06 141.49 650.74 141.24 651.25 141.05C651.83 140.8 652.34 140.68 652.78 140.68C653.15 140.68 653.49 140.8 653.78 141.05C654.14 141.24 654.39 141.67 654.52 142.35C654.65 142.98 654.74 143.85 654.79 144.97C654.9 146.09 654.88 147.52 654.75 149.27L654.7 149.3Z" />
		<path id="C" class="shp0" d="M694.9 157.53C694.85 158.16 694.62 158.72 694.2 159.21C693.8 159.65 693.12 160.02 692.15 160.33C691.25 160.64 690.05 160.86 688.55 160.99C687.04 161.18 685.13 161.27 682.82 161.27C680.51 161.27 678.61 161.18 677.12 160.99C675.63 160.86 674.43 160.64 673.52 160.33C672.67 160.02 672.07 159.64 671.72 159.21C671.39 158.71 671.24 158.15 671.28 157.53L680.44 34.46C680.49 33.83 680.72 33.27 681.14 32.78C681.55 32.28 682.21 31.87 683.1 31.56C684.07 31.19 685.3 30.91 686.8 30.72C688.31 30.53 690.22 30.44 692.53 30.44C694.84 30.44 696.74 30.53 698.23 30.72C699.72 30.91 700.88 31.19 701.73 31.56C702.64 31.87 703.27 32.28 703.6 32.78C703.93 33.28 704.08 33.84 704.04 34.46L694.88 157.53L694.9 157.53Z" />
		<path id="Layer" fill-rule="evenodd" class="shp0" d="M742.06 157.53C742.01 158.16 741.78 158.72 741.36 159.21C740.96 159.65 740.28 160.02 739.31 160.33C738.41 160.64 737.21 160.86 735.71 160.99C734.2 161.18 732.29 161.27 729.98 161.27C727.67 161.27 725.77 161.18 724.28 160.99C722.79 160.86 721.59 160.64 720.68 160.33C719.83 160.02 719.23 159.64 718.88 159.21C718.55 158.71 718.4 158.15 718.44 157.53L724.64 74.23C724.69 73.6 724.91 73.07 725.32 72.63C725.73 72.13 726.39 71.72 727.28 71.41C728.25 71.04 729.48 70.76 730.98 70.57C732.49 70.38 734.4 70.29 736.71 70.29C739.02 70.29 740.92 70.38 742.41 70.57C743.9 70.76 745.06 71.04 745.91 71.41C746.82 71.72 747.45 72.13 747.78 72.63C748.11 73.07 748.26 73.6 748.22 74.23L742.02 157.53L742.06 157.53ZM752.16 45.79C751.81 50.52 750.6 53.8 748.53 55.62C746.46 57.42 742.81 58.32 737.57 58.32C732.27 58.32 728.75 57.45 727 55.7C725.32 53.95 724.65 50.8 725 46.25C725.35 41.52 726.53 38.24 728.54 36.42C730.61 34.55 734.29 33.62 739.6 33.62C744.84 33.62 748.33 34.52 750.07 36.32C751.8 38.07 752.5 41.22 752.17 45.77L752.16 45.79ZM848.94 134.7C846.87 140.63 844.16 145.69 840.79 149.86C837.42 154.04 833.41 157.25 828.75 159.5C824.15 161.75 819.02 162.87 813.35 162.87C810.55 162.87 807.95 162.59 805.55 162.03C803.15 161.53 800.87 160.69 798.72 159.5C796.63 158.31 794.55 156.81 792.5 155C790.51 153.2 788.49 151.02 786.44 148.45L785.76 157.53C785.71 158.22 785.47 158.81 785.06 159.31C784.71 159.75 784.12 160.12 783.29 160.43C782.52 160.74 781.47 160.96 780.15 161.09C778.83 161.22 777.23 161.29 775.35 161.29C773.42 161.29 771.8 161.22 770.5 161.09C769.26 160.96 768.25 160.74 767.46 160.43C766.73 160.12 766.23 159.74 765.96 159.31C765.69 158.81 765.58 158.22 765.62 157.53L774.78 34.46C774.83 33.83 775.06 33.27 775.48 32.78C775.89 32.28 776.55 31.87 777.44 31.56C778.41 31.19 779.64 30.91 781.14 30.72C782.65 30.53 784.56 30.44 786.87 30.44C789.18 30.44 791.08 30.53 792.57 30.72C794.06 30.91 795.22 31.19 796.07 31.56C796.98 31.87 797.61 32.28 797.94 32.78C798.27 33.28 798.42 33.84 798.38 34.46L794.95 80.6C797.23 78.48 799.49 76.67 801.72 75.17C803.95 73.67 806.17 72.45 808.36 71.52C810.56 70.52 812.79 69.8 815.06 69.37C817.34 68.93 819.73 68.71 822.22 68.71C828.4 68.71 833.55 69.96 837.66 72.45C841.79 74.88 845.04 78.19 847.4 82.37C849.83 86.55 851.47 91.45 852.3 97.07C853.13 102.62 853.32 108.49 852.86 114.67C852.31 122.1 851 128.77 848.94 134.7ZM828.31 116.35C828.58 112.8 828.55 109.36 828.23 106.05C827.98 102.74 827.29 99.81 826.17 97.25C825.05 94.69 823.48 92.66 821.47 91.17C819.54 89.61 816.97 88.83 813.77 88.83C812.21 88.83 810.67 89.05 809.14 89.49C807.61 89.93 805.99 90.68 804.29 91.74C802.65 92.81 800.93 94.18 799.12 95.86C797.32 97.55 795.39 99.64 793.32 102.13L791.26 129.83C794.26 134.07 797.17 137.31 799.99 139.56C802.88 141.75 805.98 142.84 809.29 142.84C812.36 142.84 815 142.06 817.23 140.5C819.47 138.94 821.37 136.91 822.93 134.42C824.55 131.93 825.79 129.09 826.65 125.9C827.52 122.72 828.07 119.54 828.3 116.35L828.31 116.35Z" />
	</g>
	<g id="Layer">
		<g id="Layer">
			<path id="Layer" class="shp1" d="M546.05 185.02C506.93 185.02 475.32 153.41 475.32 114.3C475.32 75.18 506.93 43.57 546.05 43.57C585.16 43.57 616.77 75.18 616.77 114.3C616.77 153.41 585.16 185.02 546.05 185.02Z" />
			<path id="D" class="shp2" d="M545.55 180.96C554.37 180.96 563.1 179.22 571.24 175.85C579.38 172.47 586.78 167.53 593.02 161.3C599.25 155.06 604.2 147.66 607.57 139.52C610.94 131.37 612.68 122.65 612.68 113.83C612.68 105.02 610.94 96.29 607.57 88.14C604.2 80 599.25 72.6 593.02 66.37C586.78 60.13 579.38 55.19 571.24 51.82C563.1 48.44 554.37 46.71 545.55 46.71C536.74 46.71 528.01 48.44 519.87 51.82C511.72 55.19 504.32 60.13 498.09 66.37C491.86 72.6 486.91 80 483.54 88.14C480.16 96.29 478.43 105.02 478.43 113.83C478.43 122.65 480.16 131.37 483.54 139.52C486.91 147.66 491.86 155.06 498.09 161.3C504.32 167.53 511.72 172.47 519.87 175.85C528.01 179.22 536.74 180.96 545.55 180.96L545.55 180.96Z" />
		</g>
		<g id="Layer">
			<g id="Layer">
				<path id="Layer" class="shp3" d="M545.56 113.83L612.68 113.83M545.56 113.83L593.02 66.37M545.56 113.83L545.56 46.71M545.56 113.83L498.1 66.37M545.56 113.83L478.44 113.83" />
				<path id="Layer" class="shp3" d="M545.56 113.83L498.1 161.29M545.56 113.83L545.56 180.96M545.56 113.83L593.02 161.29" />
			</g>
			<g id="Layer">
				<path id="Layer" class="shp4" d="M553.02 113.83L552.82 112.04L552.16 110.34L551.12 108.85L549.73 107.65L548.13 106.85L546.34 106.45L544.54 106.49L542.79 106.97L541.19 107.85L539.86 109.09L538.86 110.6L538.26 112.32L538.1 114.11L538.38 115.91L539.1 117.58L540.19 119.04L541.59 120.17L543.25 120.97L545.04 121.31L546.84 121.21L548.57 120.67L550.13 119.74L551.4 118.46L552.34 116.9L552.88 115.17L553 113.87" />
				<path id="Layer" class="shp4" d="M567.93 113.83L567.73 110.72L567.08 107.67L566 104.74L564.54 101.99L562.71 99.46L560.52 97.2L558.06 95.29L555.35 93.73L552.46 92.54L549.43 91.78L546.32 91.46L543.21 91.56L540.14 92.1L537.14 93.05L534.35 94.45L531.76 96.2L529.45 98.3L527.45 100.69L525.8 103.34L524.52 106.2L523.66 109.19L523.22 112.28L523.22 115.41L523.66 118.5L524.52 121.49L525.8 124.34L527.45 126.99L529.45 129.39L531.76 131.48L534.35 133.24L537.14 134.63L540.14 135.59L543.21 136.13L546.32 136.23L549.43 135.91L552.46 135.15L555.35 133.95L558.06 132.4L560.52 130.48L562.71 128.23L564.54 125.7L566 122.95L567.08 120.01L567.73 116.96L567.93 113.85" />
				<path id="Layer" class="shp4" d="M582.85 113.83L582.65 109.94L582.05 106.1L581.05 102.31L579.66 98.66L577.86 95.19L575.73 91.92L573.28 88.89L570.53 86.13L567.49 83.66L564.22 81.53L560.75 79.73L557.11 78.34L553.32 77.34L549.47 76.74L545.58 76.54L541.69 76.74L537.84 77.34L534.05 78.34L530.4 79.73L526.93 81.53L523.62 83.66L520.63 86.11L517.84 88.91L515.39 91.94L513.25 95.21L511.46 98.68L510.06 102.33L509.07 106.12L508.47 109.96L508.27 113.85L508.47 117.74L509.07 121.59L510.06 125.38L511.46 129.03L513.25 132.5L515.39 135.77L517.84 138.8L520.59 141.55L523.62 144L526.89 146.14L530.36 147.93L534.01 149.33L537.8 150.33L541.65 150.92L545.54 151.12L549.43 150.92L553.28 150.33L557.07 149.33L560.71 147.93L564.18 146.14L567.49 144L570.53 141.55L573.28 138.8L575.73 135.77L577.86 132.5L579.66 129.03L581.05 125.38L582.05 121.59L582.65 117.74L582.85 113.85" />
				<path id="Layer" class="shp4" d="M597.77 113.83L597.49 108.37L596.63 102.98L595.23 97.7L593.28 92.6L590.81 87.73L587.81 83.14L584.39 78.9L580.52 75.03L576.27 71.6L571.68 68.61L566.82 66.13L561.71 64.18L556.43 62.78L551.04 61.93L545.58 61.65L540.12 61.93L534.73 62.78L529.45 64.18L524.34 66.13L519.48 68.61L514.89 71.6L510.64 75.03L506.77 78.9L503.34 83.14L500.35 87.73L497.88 92.6L495.93 97.7L494.53 102.98L493.67 108.37L493.39 113.83L493.67 119.3L494.53 124.68L495.93 129.97L497.88 135.07L500.35 139.94L503.34 144.52L506.77 148.77L510.64 152.64L514.89 156.07L519.48 159.06L524.34 161.53L529.45 163.49L534.73 164.88L540.12 165.74L545.58 166.02L551.04 165.74L556.43 164.88L561.71 163.49L566.82 161.53L571.68 159.06L576.27 156.07L580.52 152.64L584.39 148.77L587.79 144.54L590.79 139.96L593.26 135.09L595.21 129.99L596.61 124.7L597.47 119.32L597.75 113.85" />
			</g>
			<g id="Layer">
				<path id="E" class="shp5" d="M545.56 113.83L559.78 109.31L559.8 109.35L559.86 109.55L559.88 109.65L559.94 109.84L559.96 109.94L560.02 110.14L560.1 110.46L560.16 110.74L560.22 111.06L560.26 111.3L560.28 111.4L560.3 111.6L560.3 111.7L560.34 111.94L560.34 112.04L560.36 112.24L560.38 112.34L560.4 112.54L560.42 112.68L560.42 112.82L560.44 113.02L560.44 113.11L560.44 113.31L560.44 113.45L560.44 113.59L560.44 113.73L560.44 113.93L545.68 113.93L545.56 113.83Z" />
				<path id="F" class="shp6" d="M545.56 113.83L561.55 72.04L562.35 72.33L563.15 72.65L563.27 72.71L563.91 72.99L564.02 73.05L564.78 73.41L565.66 73.85L566.26 74.17L566.5 74.31L567 74.57L567.24 74.71L567.83 75.05L567.95 75.13L568.67 75.57L569.39 76L569.51 76.08L570.11 76.48L570.23 76.56L570.92 77.04L571.62 77.52L571.74 77.6L572.3 78L572.5 78.16L572.94 78.5L573.14 78.7L573.34 78.9L545.72 113.53L545.56 113.83Z" />
				<path id="G" class="shp7" d="M545.56 113.83L507.33 68.03L508.21 67.31L509.31 66.43L509.98 65.93L510.18 65.77L510.86 65.28L511.32 64.96L511.78 64.64L512.24 64.32L512.7 64L513.39 63.54L513.63 63.38L514.35 62.94L514.59 62.8L515.59 62.2L516.58 61.65L517.82 60.97L518.58 60.57L518.84 60.45L519.83 59.95L520.83 59.47L522.13 58.91L522.93 58.6L523.18 58.5L524.22 58.1L525.28 57.7L526.61 57.24L527.41 56.98L527.67 56.9L528.75 56.58L529.83 56.28L531.18 55.92L531.98 55.72L532.26 55.66L545.42 113.25L545.56 113.83Z" />
				<path id="H" class="shp8" d="M545.56 113.83L494.19 123.15L494.13 122.83L494.03 122.19L493.93 121.53L493.89 121.21L493.81 120.55L493.77 120.23L493.69 119.58L493.65 119.26L493.55 118.26L493.47 117.26L493.41 116.27L493.39 115.95L493.37 115.29L493.37 114.97L493.35 114.31L493.35 113.99L493.35 113.33L493.35 112.68L493.35 112.36L493.37 111.7L493.39 111.38L493.43 110.72L493.47 110.06L493.47 109.74L493.53 109.09L493.57 108.77L493.63 108.11L493.71 107.45L493.75 107.13L493.83 106.47L493.87 106.16L493.97 105.5L494.03 105.18L494.23 104.18L494.43 103.22L494.63 102.27L494.71 101.95L494.87 101.31L494.95 100.99L495.11 100.35L495.19 100.03L495.39 99.4L495.59 98.76L495.69 98.44L495.89 97.84L495.98 97.52L496.18 96.92L496.38 96.32L496.5 96.03L496.7 95.43L496.82 95.13L497.06 94.53L497.18 94.23L497.58 93.31L497.98 92.42L498.38 91.52L498.52 91.22L545.08 113.63L545.56 113.83Z" />
				<path id="I" class="shp9" d="M545.56 113.83L520.91 130.62L520.81 130.46L520.57 130.1L520.47 129.95L520.27 129.63L520.15 129.43L519.95 129.11L519.83 128.91L519.68 128.63L519.54 128.39L519.38 128.11L519.24 127.87L519.1 127.63L518.94 127.33L518.82 127.07L518.68 126.77L545.28 113.95L545.56 113.83Z" />
				<path id="J" class="shp10" d="M545.56 113.83L551.8 150.6L551.08 150.72L550.94 150.72L550.35 150.8L550.21 150.82L549.61 150.88L549.47 150.88L548.87 150.94L548.73 150.96L548.13 151L547.99 151L547.39 151.04L547.09 151.04L546.66 151.06L546.52 151.06L545.78 151.06L545.34 151.06L545.2 151.06L544.6 151.06L544.46 151.06L543.86 151.04L543.72 151.04L543.13 151L542.99 151L542.39 150.96L542.09 150.94L541.79 150.92L541.35 150.92L540.91 150.86L540.61 150.82L540.17 150.76L539.88 150.76L539.44 150.7L539.16 150.66L538.72 150.58L538.44 150.52L538 150.45L537.72 150.39L537.12 150.27L545.34 114.27L545.56 113.83Z" />
				<path id="K" class="shp7" d="M545.56 113.83L592.54 150.62L591.84 151.5L591.05 152.5L590.31 153.36L589.47 154.29L588.67 155.09L587.79 155.99L587 156.79L586.08 157.66L585.24 158.42L584.29 159.26L583.43 159.98L582.77 160.52L545.96 114.29L545.56 113.83Z" />
			</g>
		</g>
		<g id="Layer">
			<path id="D" class="shp11" d="M545.55 180.96C554.37 180.96 563.1 179.22 571.24 175.85C579.38 172.47 586.78 167.53 593.02 161.3C599.25 155.06 604.2 147.66 607.57 139.52C610.94 131.37 612.68 122.65 612.68 113.83C612.68 105.02 610.94 96.29 607.57 88.14C604.2 80 599.25 72.6 593.02 66.37C586.78 60.13 579.38 55.19 571.24 51.82C563.1 48.44 554.37 46.71 545.55 46.71C536.74 46.71 528.01 48.44 519.87 51.82C511.72 55.19 504.32 60.13 498.09 66.37C491.86 72.6 486.91 80 483.54 88.14C480.16 96.29 478.43 105.02 478.43 113.83C478.43 122.65 480.16 131.37 483.54 139.52C486.91 147.66 491.86 155.06 498.09 161.3C504.32 167.53 511.72 172.47 519.87 175.85C528.01 179.22 536.74 180.96 545.55 180.96L545.55 180.96Z" />
			<g id="Layer">
				<path id="E" class="shp12" d="M545.56 113.83L559.78 109.31L559.8 109.35L559.86 109.55L559.88 109.65L559.94 109.84L559.96 109.94L560.02 110.14L560.1 110.46L560.16 110.74L560.22 111.06L560.26 111.3L560.28 111.4L560.3 111.6L560.3 111.7L560.34 111.94L560.34 112.04L560.36 112.24L560.38 112.34L560.4 112.54L560.42 112.68L560.42 112.82L560.44 113.02L560.44 113.11L560.44 113.31L560.44 113.45L560.44 113.59L560.44 113.73L560.44 113.93L545.68 113.93L545.56 113.83Z" />
				<path id="F" class="shp12" d="M545.56 113.83L561.55 72.04L562.35 72.33L563.15 72.65L563.27 72.71L563.91 72.99L564.02 73.05L564.78 73.41L565.66 73.85L566.26 74.17L566.5 74.31L567 74.57L567.24 74.71L567.83 75.05L567.95 75.13L568.67 75.57L569.39 76L569.51 76.08L570.11 76.48L570.23 76.56L570.92 77.04L571.62 77.52L571.74 77.6L572.3 78L572.5 78.16L572.94 78.5L573.14 78.7L573.34 78.9L545.72 113.53L545.56 113.83Z" />
				<path id="G" class="shp12" d="M545.56 113.83L507.33 68.03L508.21 67.31L509.31 66.43L509.98 65.93L510.18 65.77L510.86 65.28L511.32 64.96L511.78 64.64L512.24 64.32L512.7 64L513.39 63.54L513.63 63.38L514.35 62.94L514.59 62.8L515.59 62.2L516.58 61.65L517.82 60.97L518.58 60.57L518.84 60.45L519.83 59.95L520.83 59.47L522.13 58.91L522.93 58.6L523.18 58.5L524.22 58.1L525.28 57.7L526.61 57.24L527.41 56.98L527.67 56.9L528.75 56.58L529.83 56.28L531.18 55.92L531.98 55.72L532.26 55.66L545.42 113.25L545.56 113.83Z" />
				<path id="H" class="shp12" d="M545.56 113.83L494.19 123.15L494.13 122.83L494.03 122.19L493.93 121.53L493.89 121.21L493.81 120.55L493.77 120.23L493.69 119.58L493.65 119.26L493.55 118.26L493.47 117.26L493.41 116.27L493.39 115.95L493.37 115.29L493.37 114.97L493.35 114.31L493.35 113.99L493.35 113.33L493.35 112.68L493.35 112.36L493.37 111.7L493.39 111.38L493.43 110.72L493.47 110.06L493.47 109.74L493.53 109.09L493.57 108.77L493.63 108.11L493.71 107.45L493.75 107.13L493.83 106.47L493.87 106.16L493.97 105.5L494.03 105.18L494.23 104.18L494.43 103.22L494.63 102.27L494.71 101.95L494.87 101.31L494.95 100.99L495.11 100.35L495.19 100.03L495.39 99.4L495.59 98.76L495.69 98.44L495.89 97.84L495.98 97.52L496.18 96.92L496.38 96.32L496.5 96.03L496.7 95.43L496.82 95.13L497.06 94.53L497.18 94.23L497.58 93.31L497.98 92.42L498.38 91.52L498.52 91.22L545.08 113.63L545.56 113.83Z" />
				<path id="I" class="shp12" d="M545.56 113.83L520.91 130.62L520.81 130.46L520.57 130.1L520.47 129.95L520.27 129.63L520.15 129.43L519.95 129.11L519.83 128.91L519.68 128.63L519.54 128.39L519.38 128.11L519.24 127.87L519.1 127.63L518.94 127.33L518.82 127.07L518.68 126.77L545.28 113.95L545.56 113.83Z" />
				<path id="J" class="shp12" d="M545.56 113.83L551.8 150.6L551.08 150.72L550.94 150.72L550.35 150.8L550.21 150.82L549.61 150.88L549.47 150.88L548.87 150.94L548.73 150.96L548.13 151L547.99 151L547.39 151.04L547.09 151.04L546.66 151.06L546.52 151.06L545.78 151.06L545.34 151.06L545.2 151.06L544.6 151.06L544.46 151.06L543.86 151.04L543.72 151.04L543.13 151L542.99 151L542.39 150.96L542.09 150.94L541.79 150.92L541.35 150.92L540.91 150.86L540.61 150.82L540.17 150.76L539.88 150.76L539.44 150.7L539.16 150.66L538.72 150.58L538.44 150.52L538 150.45L537.72 150.39L537.12 150.27L545.34 114.27L545.56 113.83Z" />
				<path id="K" class="shp12" d="M545.56 113.83L592.54 150.62L591.84 151.5L591.05 152.5L590.31 153.36L589.47 154.29L588.67 155.09L587.79 155.99L587 156.79L586.08 157.66L585.24 158.42L584.29 159.26L583.43 159.98L582.77 160.52L545.96 114.29L545.56 113.83Z" />
			</g>
		</g>
	</g>
</svg>